<svg xmlns="http://www.w3.org/2000/svg" width="256" height="256" viewBox="0 0 100 100"><path d="M59.84 74.96Q64.24 74.96 67.80 73.52Q71.36 72.08 74.56 69.52L74.56 69.52L76.16 71.28Q72.64 74.56 67 76.76Q61.36 78.96 54.56 78.96L54.56 78.96Q41.12 78.96 32.48 71.88Q23.84 64.80 23.84 49.20L23.84 49.20Q23.84 34.72 32.44 27.88Q41.04 21.04 54.96 21.04L54.96 21.04Q60.56 21.04 66 22.08Q71.44 23.12 74.56 24.64L74.56 24.64L73.44 38.40L71.20 38.40Q68.96 31.60 65.16 27.48Q61.36 23.36 55.04 23.36L55.04 23.36Q47.76 23.36 44.60 29.32Q41.44 35.28 41.44 47.12L41.44 47.12Q41.44 61.12 45.52 68.04Q49.60 74.96 59.84 74.96L59.84 74.96Z" fill="#fafafa"></path></svg>